inDegrees=no
num_controls=7
num_derivatives=13
num_iterations=118
num_multipliers=7
num_parameters=0
num_slacks=7
num_states=26
objective=4.127016
objective_accelerations=0.297163
objective_balance=0.068603
objective_effort=0.301202
objective_height=3.418981
objective_ligament=0.041067
solver_duration=1283.023106
status=Solve_Succeeded
success=true
DataType=double
version=3
OpenSimVersion=4.4-2022-07-23-0e9fedc
endheader
time	/jointset/ground_pelvis/pelvis_tilt/value	/jointset/ground_pelvis/pelvis_tx/value	/jointset/ground_pelvis/pelvis_ty/value	/jointset/hip_l/hip_flexion_l/value	/jointset/hip_l/hip_adduction_l/value	/jointset/hip_l/hip_rotation_l/value	/jointset/back/lumbar_extension/value	/jointset/patellofemoral_l/patellar_flexion_l/value	/jointset/knee_l/knee_flexion_l/value	/jointset/knee_l/knee_adduction_l/value	/jointset/knee_l/knee_rotation_l/value	/jointset/ankle_l/ankle_angle_l/value	/jointset/subtalar_l/subtalar_angle_l/value	/jointset/ground_pelvis/pelvis_tilt/speed	/jointset/ground_pelvis/pelvis_tx/speed	/jointset/ground_pelvis/pelvis_ty/speed	/jointset/hip_l/hip_flexion_l/speed	/jointset/hip_l/hip_adduction_l/speed	/jointset/hip_l/hip_rotation_l/speed	/jointset/back/lumbar_extension/speed	/jointset/patellofemoral_l/patellar_flexion_l/speed	/jointset/knee_l/knee_flexion_l/speed	/jointset/knee_l/knee_adduction_l/speed	/jointset/knee_l/knee_rotation_l/speed	/jointset/ankle_l/ankle_angle_l/speed	/jointset/subtalar_l/subtalar_angle_l/speed	/forceset/tau_hip_flexion_l	/forceset/tau_hip_adduction_l	/forceset/tau_hip_rotation_l	/forceset/tau_knee_flexion_l	/forceset/tau_ankle_angle_l	/forceset/tau_subtalar_angle_l	/forceset/tau_lumbar_extension	lambda_cid13_p0	lambda_cid13_p1	lambda_cid13_p2	lambda_cid13_p3	lambda_cid13_p4	lambda_cid13_p5	lambda_cid14_p0	/jointset/ground_pelvis/pelvis_tilt/accel	/jointset/ground_pelvis/pelvis_tx/accel	/jointset/ground_pelvis/pelvis_ty/accel	/jointset/hip_l/hip_flexion_l/accel	/jointset/hip_l/hip_adduction_l/accel	/jointset/hip_l/hip_rotation_l/accel	/jointset/back/lumbar_extension/accel	/jointset/patellofemoral_l/patellar_flexion_l/accel	/jointset/knee_l/knee_flexion_l/accel	/jointset/knee_l/knee_adduction_l/accel	/jointset/knee_l/knee_rotation_l/accel	/jointset/ankle_l/ankle_angle_l/accel	/jointset/subtalar_l/subtalar_angle_l/accel	gamma_cid13_p0	gamma_cid13_p1	gamma_cid13_p2	gamma_cid13_p3	gamma_cid13_p4	gamma_cid13_p5	gamma_cid14_p0
0.5	-0.2755747625841881	0.008713874296752286	0.8147169835542184	0.9284426951623729	-0.3051544770262897	-0.05916752627615204	-0.291932232089704	0.6327252964130584	0.6327252964130674	-0.1725960944030494	0.1745211330365513	0.1508193788953538	-0.02002446355235568	-0.287470789129975	-0.1043454858086605	-0.3177108713975118	1.499249142388779	-0.03490438017172614	0.5836260877792124	-0.632854856184543	1.642142250120331	1.642142250120188	-0.007607688854121763	0.0001973891272569338	0.5329878262830383	0.05359052444956949	-0.1481635783463327	0.02762450653178255	-0.02486416558985596	-0.2257545186261311	0.0627469437420588	0.03992560690961694	0.1582677243297052	-18.35453763344145	-18.37345087496772	7.378485458993841	3.624653004084951	-610.6184927586484	-62.48560364656934	-31.44234185481616	0.2588009430502708	0.2695078127656767	-0.2862731902510463	-0.8639705420804806	0.4935497463319894	-0.3321773020732467	1.095962799061082	-0.9458349867507674	-0.9458349867507659	-0.02346036358404433	-0.03126906713928241	-0.3194020627983444	0.4719607766328136	-7.486441283683815e-08	-1.099447500530166e-06	4.59414102169031e-07	-8.765588414786054e-08	-1.11774356976087e-07	-6.099366739775936e-07	-1.459575805489947e-07
0.51	-0.2784360848038515	0.007684041530803438	0.8115261710659102	0.9433896356564025	-0.3054796139263681	-0.05334947846857657	-0.298205327023206	0.6490971183913006	0.6490971183912491	-0.1726741401234612	0.174522808800688	0.1561322783254781	-0.01946587179210779	-0.2847641240504097	-0.101609444566245	-0.3203882540389835	1.48993860090493	-0.03013765067426584	0.5798926033681878	-0.6216864466070582	1.631999286787609	1.631999286787585	-0.007984985035102509	0.0001466823181023103	0.5295149679602523	0.05811169110692561	-0.1530300431375712	0.02872882571180519	-0.0249814724519972	-0.2274898322374438	0.05992119189870002	0.04055767092932593	0.1624479994117555	-19.36757135115912	-18.39753388116395	7.298886836989842	3.948167242697786	-613.2046917656043	-62.19699865162499	-30.55732427638502	0.2810188325456157	0.2773790588114142	-0.248987197660227	-0.9946605594301045	0.4660716246437425	-0.4077135498260404	1.138932623434373	-1.081926974787713	-1.081926974769978	-0.0425303847115695	0.009266200165792656	-0.3728090267788303	0.4398883868734476	-1.0075979090893e-07	-1.002186708347842e-06	5.709385037537067e-07	-6.10008452807666e-08	-1.275733440153568e-07	-5.95978427213691e-07	-1.55950281152576e-07
0.52	-0.2812694564642931	0.00668191453304509	0.8083104814718741	0.9582374578140135	-0.3057575161168333	-0.0475715214129529	-0.3043644073436654	0.6653608307425617	0.6653608307424573	-0.1727554920335499	0.1745242250343357	0.1614081329104227	-0.01886252960996901	-0.2818806772854013	-0.0988043321705608	-0.3226862925430691	1.479425475105363	-0.02545743824917812	0.5756079373888033	-0.6100519335758817	1.620520324724693	1.620520324724787	-0.008268926790340549	0.0001454830277195875	0.5255788572470627	0.06254060882774039	-0.1578965079288177	0.02983314489183085	-0.02509877931408833	-0.2292251458487632	0.05709544005534304	0.04118973494903948	0.166628274493797	-20.3879542397625	-18.42251655040206	7.221929616170582	4.277120570227817	-615.9155383656273	-61.95565279052214	-29.65490742775876	0.2941572801388946	0.2833220434194135	-0.2104043627737898	-1.10448740522409	0.4762463318574756	-0.4424136157452486	1.189183489799446	-1.213034732789589	-1.213034732789592	-0.004789478435499083	-0.0213675633848989	-0.4120525408790821	0.4535109893245457	-1.485972484815516e-07	-8.684769042191966e-07	7.921291745405597e-07	-1.611535063557633e-08	-1.607517328737704e-07	-5.935496779713774e-07	-1.79662352661862e-07
0.53	-0.2840731014018305	0.005708158664725585	0.8050737455346462	0.9729741278695786	-0.30598922579004	-0.04183831824383547	-0.3104048920742066	0.681502987717458	0.6815029877174145	-0.1728398714437287	0.1745253020800902	0.1666422844127038	-0.01821558142652838	-0.2788204788787108	-0.09593798582687754	-0.3245941830774252	1.467714326695075	-0.02090118440227759	0.5709367137355716	-0.5979717560413588	1.60769606834024	1.607696068340283	-0.00858255782939942	8.424461232538441e-05	0.5211783325733774	0.06683076803052869	-0.1627069334522371	0.03083652744973938	-0.02522865993167131	-0.2309608198224488	0.05431662963890657	0.04172850451411787	0.1707560241704125	-21.39602305028102	-18.40679111473859	7.135801539386796	4.615447942871126	-618.6264235087781	-61.65863902677809	-28.73867455192754	0.3161065289337649	0.2896207719667783	-0.1710102607525336	-1.233582729442641	0.4427486042742789	-0.4940550796634563	1.228423358940949	-1.349332955103866	-1.349332955111564	-0.0410607971010957	0.003467930734356665	-0.4650322114325309	0.4140494265711986	-1.905746837534087e-07	-7.322497363033546e-07	9.893161124227654e-07	2.805919819739631e-08	-1.939381462840036e-07	-5.784743775409028e-07	-1.991461354024907e-07
0.54	-0.2868453132737014	0.004763332228267634	0.8018199249196775	0.9875878556069395	-0.3061758861861417	-0.03615474297915783	-0.3163223773346703	0.6975104597557505	0.6975104597557551	-0.1729266693404079	0.1745261607239436	0.1718302347120852	-0.01752627544289675	-0.2755940641520356	-0.09301844579825036	-0.326103228091227	1.454837011464321	-0.01644758282866682	0.5656823565002914	-0.5854520395603438	1.59358333740256	1.593583337402551	-0.008752624086852553	0.0001018026509735871	0.5163386166669213	0.07101216886592786	-0.1675173589756442	0.03183991000767093	-0.02535854054944679	-0.2326964937961024	0.05153781922247889	0.04226727407922095	0.1748837738470323	-22.41060889973223	-18.39270210149938	7.053107785477455	4.952219133625256	-621.4515519902781	-61.41910435818151	-27.8121666901066	0.3274005441358057	0.2939607804081917	-0.1306352586629588	-1.337720769317417	0.4557158771995078	-0.5590403321549631	1.27709127909784	-1.470729643434999	-1.470729643435002	0.02392347788565658	-0.005608272576412904	-0.4998907874332928	0.4317593158467184	-2.260686900967606e-07	-5.932373999421041e-07	1.159945728793446e-06	7.144716868493668e-08	-2.271334379217823e-07	-5.494071481362927e-07	-2.139518114203495e-07
0.55	-0.2895844161227789	0.003847935780931005	0.7985530491905725	1.002066946735748	-0.3063186837035435	-0.03052566495521671	-0.3221126282685738	0.7133702159246232	0.7133702159246391	-0.1730151898579461	0.1745269207594487	0.1769675418584349	-0.01679591309802957	-0.2721996718899686	-0.09005476835830906	-0.3272027193368895	1.440792214083342	-0.01213552328621639	0.5600534583908834	-0.5725353720482645	1.578158182526608	1.578158182526566	-0.008940986001525477	5.706995785140964e-05	0.5110520495484553	0.07503345067503442	-0.1721903957288774	0.03267830947946915	-0.02547295825519582	-0.2345424364780956	0.04891277336489177	0.04268826821099815	0.1788903482519802	-23.37833523113108	-18.33278753792267	6.959817087356717	5.28721093539447	-624.2506952902239	-61.13120951068429	-26.8827335683326	0.3494591326862422	0.2985015450515658	-0.0892753465740477	-1.466239461846034	0.4152661677113142	-0.576980771069456	1.308370763092704	-1.60982108099705	-1.60982108100196	-0.03865423388419519	-0.003114901106206226	-0.553661828159852	0.3832210431338983	-2.328174581842955e-07	-4.89692508320478e-07	1.196584573457012e-06	9.041724500980325e-08	-2.315903552194167e-07	-5.029866010605939e-07	-2.116906218716201e-07
